<html>
<head>
<meta charset="UTF-8">
<meta name="viewport" content="width=device-width, initial-scale=1.0"/>

<style>
.comment
{
    padding-left: 20px;
    margin-top: 4px;
    margin-right: 4px;
    margin-bottom: 4px;
    border: 2px #000 solid;
}
.submission
{
    border: 4px #00f solid;
    padding-left: 20px;
}
.hidden
{
    display: none;
}
</style>
</head>
<body><div class="submission" id="t3_6a2lhk">
    <p class="userinfo">
        <a href="https://www.reddit.com/u/vcdupper">vcdupper</a>
        <span class="score"> | 23 points</span>
        <span class="timestamp"> | May 09 2017 02:02:55</span>
    </p>
    <strong>[MOVIE] Alice.In.Wonderland.1951.1080p.BluRay.x264-CiNEFiLE [4.37GB]</strong>
    <p><p>Add mega<br>
.nz/#!gD5UlASB<br>
!qzMrSiXFjYSAyYFcdIMarYyWriOxTosOTSx1kU90w3c  </p>
<hr>
<h3><a href="https://youtu.be/ixZnhA7Wmq4">Unsure How To Download?</a>  &lt;------CLICK HERE!!!</h3>
<hr>
<h3>SPECS:</h3>
<p>Video<br>
ID                                       : 1<br>
Format                                   : AVC<br>
Format/Info                              : Advanced Video Codec<br>
Format profile                           : High@L4.0<br>
Format settings, CABAC                   : Yes<br>
Format settings, ReFrames                : 4 frames<br>
Muxing mode                              : Header stripping<br>
Codec ID                                 : V_MPEG4/ISO/AVC<br>
Duration                                 : 1h 15mn<br>
Bit rate                                 : 6808 Kbps<br>
Width                                    : 1424 pixels<br>
Height                                   : 1080 pixels<br>
Display aspect ratio                     : 4:3<br>
Frame rate mode                          : Constant<br>
Frame rate                               : 23.976 fps<br>
Color space                              : YUV<br>
Chroma subsampling                       : 4:2:0<br>
Bit depth                                : 8 bits<br>
Scan type                                : Progressive<br>
Bits/(Pixel*Frame)                       : 0.185<br>
Stream size                              : 3.49 GiB (80%)<br>
Writing library                          : x264 core 113 r1882 f6d0c95<br>
Language                                 : English<br>
Default                                  : Yes<br>
Forced                                   : No  </p>
<p>Audio<br>
ID                                       : 2<br>
Format                                   : DTS<br>
Format/Info                              : Digital Theater Systems<br>
Mode                                     : 16<br>
Format settings, Endianness              : Big<br>
Muxing mode                              : Header stripping<br>
Codec ID                                 : A_DTS  <br>
Duration                                 : 1h 15mn<br>
Bit rate mode                            : Constant<br>
Bit rate                                 : 1509 Kbps<br>
Channel(s)                               : 6 channels<br>
Channel positions                        : Front: L C R, Side: L R, LFE<br>
Sampling rate                            : 48.0 KHz<br>
Bit depth                                : 24 bits<br>
Compression mode                         : Lossy<br>
Stream size                              : 812 MiB (18%)<br>
Language                                 : English<br>
Default                                  : Yes<br>
Forced                                   : No  </p>
<p>Text<br>
ID                                       : 3<br>
Format                                   : UTF-8<br>
Codec ID                                 : S_TEXT/UTF8<br>
Codec ID/Info                            : UTF-8 Plain Text<br>
Language                                 : English<br>
Default                                  : No<br>
Forced                                   : No  </p></p>
    <p class="toolbar">
        <a href="https://www.reddit.com/r/megalinks/comments/6a2lhk">permalink</a>
    </p>
</div>
<div class="comment" id="t1_dhb9t43">
    <p class="userinfo">
        <a
        class="toggle_hide_button"
        href="javascript:void(0)"
        onclick="toggle_collapse(this.parentElement.parentElement)">[-]
        </a>
        <a href="https://www.reddit.com/u/dosemeele">dosemeele</a>
        <span class="score"> | 2 points</span>
        <span class="timestamp"> | May 09 2017 02:27:10</span>
    </p>
    <div class="collapsible">
        <p>Thank you! </p>
        <p class="toolbar">
            <a href="https://www.reddit.com/r/megalinks/comments/6a2lhk/_/dhb9t43">permalink</a>
        </p>
        
    </div>
</div>

<div class="comment" id="t1_dhbk82n">
    <p class="userinfo">
        <a
        class="toggle_hide_button"
        href="javascript:void(0)"
        onclick="toggle_collapse(this.parentElement.parentElement)">[-]
        </a>
        <a href="https://www.reddit.com/u/Harouto">Harouto</a>
        <span class="score"> | 2 points</span>
        <span class="timestamp"> | May 09 2017 08:08:24</span>
    </p>
    <div class="collapsible">
        <p>Thanks for this!</p>
        <p class="toolbar">
            <a href="https://www.reddit.com/r/megalinks/comments/6a2lhk/_/dhbk82n">permalink</a>
        </p>
        
    </div>
</div>

<div class="comment" id="t1_dhfubsu">
    <p class="userinfo">
        <a
        class="toggle_hide_button"
        href="javascript:void(0)"
        onclick="toggle_collapse(this.parentElement.parentElement)">[-]
        </a>
        <a href="https://www.reddit.com/u/pacocan25">pacocan25</a>
        <span class="score"> | 1 points</span>
        <span class="timestamp"> | May 11 2017 21:35:34</span>
    </p>
    <div class="collapsible">
        <p>thnx, added to my download list:)</p>
        <p class="toolbar">
            <a href="https://www.reddit.com/r/megalinks/comments/6a2lhk/_/dhfubsu">permalink</a>
        </p>
        
    </div>
</div>

<div class="comment" id="t1_dhg8cbu">
    <p class="userinfo">
        <a
        class="toggle_hide_button"
        href="javascript:void(0)"
        onclick="toggle_collapse(this.parentElement.parentElement)">[-]
        </a>
        <a href="https://www.reddit.com/u/aznboyknowledge">aznboyknowledge</a>
        <span class="score"> | 1 points</span>
        <span class="timestamp"> | May 12 2017 02:43:20</span>
    </p>
    <div class="collapsible">
        <p>file is dead :X </p>
        <p class="toolbar">
            <a href="https://www.reddit.com/r/megalinks/comments/6a2lhk/_/dhg8cbu">permalink</a>
        </p>
        
    </div>
</div>
</body>

<script>
function toggle_collapse(comment_div)
{
    var button = comment_div.getElementsByClassName("toggle_hide_button")[0];
    var collapsible = comment_div.getElementsByClassName("collapsible")[0];
    if (collapsible.classList.contains("hidden"))
    {
        collapsible.classList.remove("hidden");
        button.innerText = "[-]";
    }
    else
    {
        collapsible.classList.add("hidden");
        button.innerText = "[+]";
    }
}
</script>
</html>
